# xmcd
#
# Track frame offsets: 
#        150
#        14705
#        31900
#        51007
#        67470
#        86440
#        107262
#        126155
#        150972
#        162402
#        179852
#        191632
#        210437
#        236410
#
# Disc length: 3367 seconds
#
# Revision: 0
# Processed by: cddbd v1.5.2PL0 Copyright (c) Steve Scherf et al.
# Submitted via: ExactAudioCopy v0.99pb3
#
DISCID=bb0d250e
DTITLE=Beck - Odelay
DYEAR=1996
DGENRE=Alternative Hip Hop
TTITLE0=Devil's Haircut
TTITLE1=Hotwax
TTITLE2=Lord Only Knows
TTITLE3=The New Pollution
TTITLE4=Derelict
TTITLE5=Novacane
TTITLE6=Jack-ass
TTITLE7=Where It's At
TTITLE8=Minus
TTITLE9=Sissyneck
TTITLE10=Readymade
TTITLE11=High 5 (Rock The Catskills)
TTITLE12=Ramshackle
TTITLE13=Diskobox
EXTD=
EXTT0=
EXTT1=
EXTT2=
EXTT3=
EXTT4=
EXTT5=
EXTT6=
EXTT7=
EXTT8=
EXTT9=
EXTT10=
EXTT11=
EXTT12=
EXTT13=
PLAYORDER=
